<svg width="100%" height="100%" viewBox="0 0 213 135" version="1.1" xmlns="http://www.w3.org/2000/svg" xmlns:xlink="http://www.w3.org/1999/xlink" xml:space="preserve" xmlns:serif="http://www.serif.com/" style="fill-rule:evenodd;clip-rule:evenodd;stroke-linejoin:round;stroke-miterlimit:2;fill:currentColor" id="snail">
    <style>
        path {
            fill: black;
        }
        @media (prefers-color-scheme: dark) {
            path { fill: white; }
        }
    </style>
    <g transform="matrix(1,0,0,1,-345.982,7.10543e-15)">
        <g id="Expanded" transform="matrix(0.511749,0,0,0.511446,287.034,-54.3577)">
            <rect x="115.188" y="106.282" width="415.744" height="263.413" style="fill:none;"/>
            <g transform="matrix(1.95408,0,0,1.95524,-452.43,-275.444)">
                <g transform="matrix(1,0,0,1,1.9472,29.9231)">
                    <path d="M360.7,257.367C349.728,258.237 344.096,256.501 337.985,251.409C337.942,251.374 337.899,251.339 337.856,251.305C330.225,245.297 328.459,234.619 331.127,228.999C331.959,227.246 332.974,226.073 334.314,225.609C335.82,225.088 337.523,225.37 339.281,225.959C342.688,227.1 346.172,229.521 349.265,232.513C351.192,234.376 354.122,234.736 356.442,233.393C358.762,232.05 359.91,229.331 359.254,226.732C358.499,223.739 358.431,220.611 359.141,217.909C359.666,215.91 360.579,214.122 362.205,213.169C363.59,212.357 365.397,212.271 367.598,212.785C369.955,213.337 372.98,216.053 376.027,219.937C381.551,226.977 386.414,238.042 386.02,251.545C385.678,263.295 382.656,271.675 377.77,277.386C370.585,285.784 359.62,288.159 349.079,287.809C348.973,287.806 348.867,287.805 348.761,287.807C325.262,288.275 300.684,268.128 300.684,237.645C300.684,206.714 325.796,181.603 356.726,181.603C387.752,181.603 416.843,206.585 416.665,237.61C416.481,269.671 408.205,291.68 408.205,291.68C407.523,293.48 407.746,295.497 408.804,297.105C409.862,298.712 411.627,299.715 413.55,299.8C432.651,300.649 470.128,288.614 495.251,249.258C502.439,237.998 503.882,224.484 494.436,215.038C484.713,205.315 468.925,205.315 459.202,215.038C454.735,219.505 449.528,225.905 444.783,230.948C442.252,233.638 439.985,235.962 438.061,236.903C435.086,238.358 433.852,241.954 435.307,244.929C436.761,247.904 440.358,249.138 443.333,247.683C446.177,246.292 449.78,243.149 453.523,239.171C458.187,234.214 463.296,227.914 467.687,223.523C472.727,218.483 480.911,218.483 485.951,223.523C491.275,228.848 489.188,236.454 485.136,242.802C466.27,272.355 439.797,284.871 422.094,287.366C424.777,277.52 428.538,259.829 428.665,237.679C428.879,200.221 394.185,169.603 356.726,169.603C319.173,169.603 288.684,200.091 288.684,237.645C288.684,275.576 319.594,300.297 348.839,299.808C362.914,300.243 377.295,296.399 386.888,285.187C393.211,277.796 397.572,267.1 398.015,251.894C398.589,232.193 390.049,216.7 381.876,208.442C377.724,204.247 373.497,201.841 370.33,201.101C364.51,199.74 359.799,200.669 356.136,202.816C351.531,205.516 348.477,210.545 347.271,216.401C336.79,211.108 325.826,212.18 320.286,223.854C315.913,233.067 317.9,250.82 330.38,260.691C338.796,267.692 346.477,270.533 361.65,269.329C364.951,269.067 367.418,266.174 367.156,262.873C366.894,259.572 364.002,257.105 360.7,257.367Z"/>
                    <path d="M448.744,183.262C448.913,183.408 452.385,186.47 455.096,192.777C459.158,202.23 456.244,219.673 456.244,219.673C455.743,222.946 457.994,226.011 461.267,226.511C464.541,227.012 467.605,224.761 468.106,221.488C468.106,221.488 471.177,199.804 466.121,188.038C460.248,174.373 453.668,172.326 453.668,172.326C450.606,171.064 447.096,172.524 445.833,175.586C444.62,178.528 445.922,181.886 448.744,183.262Z"/>
                    <g transform="matrix(0.915183,0,0,0.994987,58.2686,-5.70116)">
                        <path d="M448.744,183.262C448.913,183.408 452.385,186.47 455.096,192.777C459.158,202.23 456.244,219.673 456.244,219.673C455.743,222.946 457.994,226.011 461.267,226.511C464.541,227.012 467.605,224.761 468.106,221.488C468.106,221.488 471.177,199.804 466.121,188.038C460.248,174.373 453.668,172.326 453.668,172.326C450.606,171.064 447.096,172.524 445.833,175.586C444.62,178.528 445.922,181.886 448.744,183.262Z"/>
                    </g>
                </g>
                <path d="M291.358,327.928L349.73,323.555L353.742,329.687L291.358,329.687C290.872,329.687 290.478,329.293 290.478,328.807C290.478,328.322 290.872,327.928 291.358,327.928Z"/>
                <g transform="matrix(-1,0,0,1,768.731,0)">
                    <path d="M272.573,327.928L349.73,323.555L353.742,329.687L272.573,329.687C272.088,329.687 271.693,329.293 271.693,328.807C271.693,328.322 272.088,327.928 272.573,327.928Z"/>
                </g>
            </g>
        </g>
    </g>
</svg>
